<?xml version="1.0" encoding="UTF-8" standalone="no"?>
<!-- Created with Inkscape (http://www.inkscape.org/) -->

<svg
   xmlns:dc="http://purl.org/dc/elements/1.1/"
   xmlns:cc="http://creativecommons.org/ns#"
   xmlns:rdf="http://www.w3.org/1999/02/22-rdf-syntax-ns#"
   xmlns:svg="http://www.w3.org/2000/svg"
   xmlns="http://www.w3.org/2000/svg"
   xmlns:sodipodi="http://sodipodi.sourceforge.net/DTD/sodipodi-0.dtd"
   xmlns:inkscape="http://www.inkscape.org/namespaces/inkscape"
   version="1.1"
   id="svg815"
   xml:space="preserve"
   width="153.42006"
   height="114.03594"
   viewBox="0 0 153.42006 114.03594"
   sodipodi:docname="eOMIS Logo - Transparent - No Text - Marquis Official - SVG.svg"
   inkscape:version="0.92.4 (5da689c313, 2019-01-14)"><metadata
     id="metadata821"><rdf:RDF><cc:Work
         rdf:about=""><dc:format>image/svg+xml</dc:format><dc:type
           rdf:resource="http://purl.org/dc/dcmitype/StillImage" /><dc:title></dc:title></cc:Work></rdf:RDF></metadata><defs
     id="defs819"><clipPath
       clipPathUnits="userSpaceOnUse"
       id="clipPath833"><path
         d="m 950.828,849.504 c 0,0 -227.39,20.539 -533.078,-67.781 0,0 -399.0625,-114.168 -413.74219,-311.391 0,0 -24.96481,-166.785 389.25419,-144.844 0,0 -240.512,22.063 -236.321,148.098 0,0 -11.687,130.984 284.157,259.133 0,0 243.59,103.492 509.73,116.785 z"
         id="path831"
         inkscape:connector-curvature="0" /></clipPath><linearGradient
       x1="0"
       y1="0"
       x2="1"
       y2="0"
       gradientUnits="userSpaceOnUse"
       gradientTransform="matrix(-2.25e-5,515.328,515.328,2.25e-5,477.275,295.566)"
       spreadMethod="pad"
       id="linearGradient843"><stop
         style="stop-opacity:1;stop-color:#ffffff"
         offset="0"
         id="stop835" /><stop
         style="stop-opacity:1;stop-color:#ffffff"
         offset="0.25389355"
         id="stop837" /><stop
         style="stop-opacity:1;stop-color:#231f20"
         offset="0.835165"
         id="stop839" /><stop
         style="stop-opacity:1;stop-color:#231f20"
         offset="1"
         id="stop841" /></linearGradient><clipPath
       clipPathUnits="userSpaceOnUse"
       id="clipPath853"><path
         d="M 0,0 H 3317.15 V 855.293 H 0 Z"
         id="path851"
         inkscape:connector-curvature="0" /></clipPath><clipPath
       clipPathUnits="userSpaceOnUse"
       id="clipPath877"><path
         d="m 398.43,272.184 65.429,215.097 608.491,1.711 -61.83,-215.73 -612.09,-1.078"
         id="path875"
         inkscape:connector-curvature="0" /></clipPath><linearGradient
       x1="0"
       y1="0"
       x2="1"
       y2="0"
       gradientUnits="userSpaceOnUse"
       gradientTransform="matrix(727.513,-33.0687,-33.0687,-727.513,598.599,386.807)"
       spreadMethod="pad"
       id="linearGradient883"><stop
         style="stop-opacity:1;stop-color:#ffffff"
         offset="0"
         id="stop879" /><stop
         style="stop-opacity:1;stop-color:#231f20"
         offset="1"
         id="stop881" /></linearGradient><clipPath
       clipPathUnits="userSpaceOnUse"
       id="clipPath893"><path
         d="M 0,0 H 3317.15 V 855.293 H 0 Z"
         id="path891"
         inkscape:connector-curvature="0" /></clipPath><clipPath
       clipPathUnits="userSpaceOnUse"
       id="clipPath903"><path
         d="m 932.309,0.0234375 h -612 L 382.41,215.844 994.051,215.754 932.309,0.0234375"
         id="path901"
         inkscape:connector-curvature="0" /></clipPath><linearGradient
       x1="0"
       y1="0"
       x2="1"
       y2="0"
       gradientUnits="userSpaceOnUse"
       gradientTransform="matrix(727.489,-33.0676,-33.0676,-727.489,586.201,111.074)"
       spreadMethod="pad"
       id="linearGradient909"><stop
         style="stop-opacity:1;stop-color:#ffffff"
         offset="0"
         id="stop905" /><stop
         style="stop-opacity:1;stop-color:#231f20"
         offset="1"
         id="stop907" /></linearGradient><clipPath
       clipPathUnits="userSpaceOnUse"
       id="clipPath919"><path
         d="M 0,0 H 3317.15 V 855.293 H 0 Z"
         id="path917"
         inkscape:connector-curvature="0" /></clipPath><clipPath
       clipPathUnits="userSpaceOnUse"
       id="clipPath929"><path
         d="m 1088.87,546.594 36.96,128.898 -36.92,-128.898 h -0.04 m 61.75,215.461 -325.69,0.988 c 0.011,0 0.011,0 0.011,0 l 325.709,-0.898 -0.03,-0.09"
         id="path927"
         inkscape:connector-curvature="0" /></clipPath><linearGradient
       x1="0"
       y1="0"
       x2="1"
       y2="0"
       gradientUnits="userSpaceOnUse"
       gradientTransform="matrix(727.005,-33.0456,-33.0456,-727.005,611.392,663.096)"
       spreadMethod="pad"
       id="linearGradient935"><stop
         style="stop-opacity:1;stop-color:#ffffff"
         offset="0"
         id="stop931" /><stop
         style="stop-opacity:1;stop-color:#231f20"
         offset="1"
         id="stop933" /></linearGradient><clipPath
       clipPathUnits="userSpaceOnUse"
       id="clipPath945"><path
         d="m 478.172,545.602 c 37.887,110.972 144.719,203.941 346.769,217.441 l 325.679,-0.988 -24.79,-86.563 -36.96,-128.898 -610.698,-0.992"
         id="path943"
         inkscape:connector-curvature="0" /></clipPath><linearGradient
       x1="0"
       y1="0"
       x2="1"
       y2="0"
       gradientUnits="userSpaceOnUse"
       gradientTransform="matrix(727.005,-33.0456,-33.0456,-727.005,611.392,663.096)"
       spreadMethod="pad"
       id="linearGradient951"><stop
         style="stop-opacity:1;stop-color:#ffffff"
         offset="0"
         id="stop947" /><stop
         style="stop-opacity:1;stop-color:#231f20"
         offset="1"
         id="stop949" /></linearGradient><clipPath
       clipPathUnits="userSpaceOnUse"
       id="clipPath961"><path
         d="M 0,0 H 3317.15 V 855.293 H 0 Z"
         id="path959"
         inkscape:connector-curvature="0" /></clipPath></defs><sodipodi:namedview
     pagecolor="#ffffff"
     bordercolor="#666666"
     borderopacity="1"
     objecttolerance="10"
     gridtolerance="10"
     guidetolerance="10"
     inkscape:pageopacity="0"
     inkscape:pageshadow="2"
     inkscape:window-width="1920"
     inkscape:window-height="1017"
     id="namedview817"
     showgrid="false"
     fit-margin-top="0"
     fit-margin-left="0"
     fit-margin-right="0"
     fit-margin-bottom="0"
     inkscape:zoom="1.6060606"
     inkscape:cx="345.88924"
     inkscape:cy="139.54449"
     inkscape:window-x="1912"
     inkscape:window-y="1072"
     inkscape:window-maximized="1"
     inkscape:current-layer="g849" /><g
     id="g823"
     inkscape:groupmode="layer"
     inkscape:label="ink_ext_XXXXXX"
     transform="matrix(1.3333333,0,0,-1.3333333,6.981811e-5,114.03906)"><g
       id="g825"
       transform="scale(0.1)"><g
         id="g827"><g
           id="g829"
           clip-path="url(#clipPath833)"><path
             d="m 950.828,849.504 c 0,0 -227.39,20.539 -533.078,-67.781 0,0 -399.0625,-114.168 -413.74219,-311.391 0,0 -24.96481,-166.785 389.25419,-144.844 0,0 -240.512,22.063 -236.321,148.098 0,0 -11.687,130.984 284.157,259.133 0,0 243.59,103.492 509.73,116.785"
             style="fill:url(#linearGradient843);fill-opacity:1;fill-rule:nonzero;stroke:none"
             id="path845"
             inkscape:connector-curvature="0" /></g></g><g
         id="g847"><g
           id="g849"
           clip-path="url(#clipPath853)"><path
             d="m 950.828,849.504 0.336,3.703 c -0.098,0.008 -23.129,2.086 -64.324,2.086 v 0 c -88.559,-0.004 -261.063,-9.594 -470.121,-69.996 h 0.004 l 0.004,0.004 C 416.586,785.254 316.652,756.676 214.656,703.281 163.656,676.57 112.129,643.672 72.2539,604.855 32.4102,566.059 4.07813,521.184 0.300781,470.609 l 3.707029,-0.277 -3.675779,0.551 C 0.308594,470.723 0,468.613 0,464.984 v 0 c -0.0585938,-13.957 4.73438,-50.789 47.6367,-83.593 42.8711,-32.801 123.1253,-61.598 273.8363,-61.61 22.398,0 46.359,0.637 71.984,1.992 l 0.145,7.418 c -0.012,0 -3.61,0.332 -10.02,1.157 -22.434,2.882 -78.758,11.855 -129.094,33.343 -25.164,10.735 -48.797,24.598 -65.957,42.153 -17.168,17.59 -27.898,38.629 -27.922,64.496 0,1.031 0.016,2.07 0.051,3.121 l 0.008,0.227 -0.02,0.226 -0.019,0.359 -0.027,1.368 c 0.015,7.832 2.23,41.476 38.507,88.136 36.282,46.649 106.778,106.321 243.469,165.532 l -0.015,-0.008 -0.008,-0.004 c 0.008,0.004 3.754,1.598 10.906,4.441 50.047,19.918 265.406,100.473 497.555,112.051 l 0.148,7.418 -0.336,-3.703 -0.183,3.711 c -266.965,-13.356 -510.786,-117 -511,-117.07 l -0.012,-0.008 -0.012,-0.004 C 302.133,676.574 230.52,616.266 193.238,568.344 155.949,520.438 153.145,484.922 153.16,475.641 c 0,-1.469 0.07,-2.282 0.078,-2.387 l 3.703,0.332 -3.714,0.121 c -0.039,-1.129 -0.055,-2.254 -0.055,-3.367 -0.027,-32.047 15.504,-57.621 38.203,-77.399 34.086,-29.711 84.367,-47.3 126.203,-57.707 41.828,-10.375 75.223,-13.437 75.344,-13.449 l 0.34,3.703 -0.196,3.715 C 367.559,327.852 343.73,327.219 321.473,327.219 171.656,327.203 93.0391,355.953 52.1602,387.297 11.3203,418.641 7.5,452.551 7.4375,464.984 v 0 c 0,1.606 0.07031,2.844 0.13281,3.661 l 0.08594,0.906 0.03125,0.23 0.01953,0.137 0.01172,0.137 c 3.55855,48.039 30.61325,91.39 69.72265,129.468 58.6176,57.106 144.0356,101.903 214.7346,132.258 35.351,15.188 67.027,26.789 89.851,34.586 11.411,3.899 20.61,6.848 26.95,8.821 6.339,1.972 9.785,2.957 9.796,2.96 h 0.004 l 0.004,0.004 c 208.211,60.157 380.035,69.703 468.059,69.703 20.473,0 36.41,-0.519 47.219,-1.031 5.406,-0.258 9.527,-0.515 12.289,-0.707 2.765,-0.195 4.144,-0.32 4.148,-0.32 l 0.332,3.707 -0.183,3.711 0.183,-3.711"
             style="fill:#231f20;fill-opacity:1;fill-rule:nonzero;stroke:none"
             id="path855"
             inkscape:connector-curvature="0" /><path
             d="m 1010.52,273.262 61.83,215.73 -608.491,-1.711 -65.429,-215.097 612.09,1.078"
             style="fill:#df6b13;fill-opacity:1;fill-rule:nonzero;stroke:none"
             id="path865"
             inkscape:connector-curvature="0" /><path
             d="M 932.309,0.0234375 994.051,215.754 382.41,215.844 320.309,0.0234375 h 612"
             style="fill:#aa0c31;fill-opacity:1;fill-rule:nonzero;stroke:none"
             id="path867"
             inkscape:connector-curvature="0" /><path
             d="m 824.672,763.043 325.978,-0.988 -61.83,-215.641 -611.101,-0.902 c 37.89,110.972 144.812,204.031 346.953,217.531"
             style="fill:#00635f;fill-opacity:1;fill-rule:nonzero;stroke:none"
             id="path869"
             inkscape:connector-curvature="0" /></g></g><g
         id="g871"><g
           id="g873"
           clip-path="url(#clipPath877)"><path
             d="m 398.43,272.184 65.429,215.097 608.491,1.711 -61.83,-215.73 -612.09,-1.078"
             style="fill:url(#linearGradient883);fill-opacity:1;fill-rule:nonzero;stroke:none"
             id="path885"
             inkscape:connector-curvature="0" /></g></g><g
         id="g887"><g
           id="g889"
           clip-path="url(#clipPath893)"><path
             d="m 398.43,272.184 65.429,215.097 608.491,1.711 -61.83,-215.73 -612.09,-1.078"
             style="fill:#df6b13;fill-opacity:1;fill-rule:nonzero;stroke:none"
             id="path895"
             inkscape:connector-curvature="0" /></g></g><g
         id="g897"><g
           id="g899"
           clip-path="url(#clipPath903)"><path
             d="m 932.309,0.0234375 h -612 L 382.41,215.844 994.051,215.754 932.309,0.0234375"
             style="fill:url(#linearGradient909);fill-opacity:1;fill-rule:nonzero;stroke:none"
             id="path911"
             inkscape:connector-curvature="0" /></g></g><g
         id="g913"><g
           id="g915"
           clip-path="url(#clipPath919)"><path
             d="m 932.309,0.0234375 h -612 L 382.41,215.844 994.051,215.754 932.309,0.0234375"
             style="fill:#aa0c31;fill-opacity:1;fill-rule:nonzero;stroke:none"
             id="path921"
             inkscape:connector-curvature="0" /></g></g><g
         id="g923"><g
           id="g925"
           clip-path="url(#clipPath929)"><path
             d="m 1088.87,546.594 36.96,128.898 -36.92,-128.898 h -0.04 m 61.75,215.461 -325.69,0.988 c 0.011,0 0.011,0 0.011,0 l 325.709,-0.898 -0.03,-0.09"
             style="fill:url(#linearGradient935);fill-opacity:1;fill-rule:nonzero;stroke:none"
             id="path937"
             inkscape:connector-curvature="0" /></g></g><g
         id="g939"><g
           id="g941"
           clip-path="url(#clipPath945)"><path
             d="m 478.172,545.602 c 37.887,110.972 144.719,203.941 346.769,217.441 l 325.679,-0.988 -24.79,-86.563 -36.96,-128.898 -610.698,-0.992"
             style="fill:url(#linearGradient951);fill-opacity:1;fill-rule:nonzero;stroke:none"
             id="path953"
             inkscape:connector-curvature="0" /></g></g><g
         id="g955"><g
           id="g957"
           clip-path="url(#clipPath961)"><path
             d="m 478.172,545.602 c 37.887,110.972 144.719,203.941 346.769,217.441 l 325.679,-0.988 -24.79,-86.563 -36.96,-128.898 -610.698,-0.992"
             style="fill:#00635f;fill-opacity:1;fill-rule:nonzero;stroke:none"
             id="path963"
             inkscape:connector-curvature="0" /></g></g></g></g></svg>